

<svg version="1.1" id="Lager_1" xmlns="http://www.w3.org/2000/svg" xmlns:xlink="http://www.w3.org/1999/xlink" x="0px" y="0px"" xml:space="preserve">
	<symbol id=superman  viewBox="0 0 1366 768" > 
   
<style type="text/css">
	.st0{fill:#FFFFFF;}
	.st1{fill:#C1272D;stroke:#000000;stroke-miterlimit:10;}
	.st2{fill:#FFFFFF;stroke:#000000;stroke-miterlimit:10;}
</style>
<g>
	<rect x="495.5" y="179.5" class="st0" width="373" height="318"/>
	<path d="M868,180v317H496V180H868 M869,179H495v319h374V179L869,179z"/>
</g>
<g>
	<path class="st1" d="M655.5,414.5c106,130-10,8-165,13c-17.74,0.57-32.02,1.08-43.42,1.54c44.94-26.6,156.71-104.11,77.42-186.54
		h227c0,0-98.97,20.58-122.01,77.51C619.62,344.41,623.7,375.5,655.5,414.5z"/>
	<path class="st2" d="M429.83,438.76c0.06-0.07,0.71-0.42,1.85-1.04c-0.16,0.25-0.55,0.51-1.18,0.78
		C430.09,438.68,429.87,438.76,429.83,438.76z"/>
</g>
<path class="st2" d="M447.08,429.04c-7.21,4.27-12.7,7.23-15.4,8.68C434.7,433.12,363.38,432.4,447.08,429.04z"/>
<g>
	<g>
		<path d="M622.39,213.42c18.12-7.2,37.15-12.33,56.55-14.44c19.22-2.1,38.83-1.27,57.62,3.48c15.87,4.02,30.85,10.95,44.11,20.57
			c12.75,9.25,23.84,20.96,31.93,34.5c3.99,6.68,7.24,13.79,9.56,21.21c2.4,7.66,4.06,15.73,3.8,23.79
			c-0.27,8.26-2.93,16.46-9.59,21.75c-3.49,2.77-7.66,4.62-11.82,6.14c-4.68,1.71-9.46,3.17-14.26,4.48
			c-9.92,2.7-20.04,4.65-30.26,5.76c-8.36,0.92-17.48,1.93-25.58-0.98c-6.51-2.34-11.21-7.82-11.45-14.85
			c-0.22-6.39,2.67-12.74,6.95-17.39c12.37-13.42,32.72-7.95,46.7-0.32c7.78,4.25,15.22,9.45,21.66,15.56
			c6.07,5.76,11.39,12.62,14.39,20.49c5.06,13.28,3.38,28.35-2.88,40.93c-6.44,12.94-17.59,23.39-31.5,27.73
			c-14.42,4.5-30.35,2.67-43.93-3.7c-6.88-3.23-13.22-7.58-18.62-12.94c-2.64-2.63-5.06-5.49-7.17-8.56
			c-2.57-3.76-5.22-8.54-4.13-13.27c1.65-7.15,10.25-9.36,16.56-10c8.32-0.84,16.9-0.39,25.19,0.58
			c17.01,1.99,33.67,7.23,48.84,15.14c15.15,7.9,29.1,18.53,40.25,31.51c5.11,5.95,11.15,15.32,7.18,23.35
			c-3.69,7.45-13.47,9.31-20.76,11.13c-19.49,4.86-39.49,7.58-59.57,8.14c-20.07,0.57-40.21-0.99-59.94-4.7
			c-9.55-1.8-19.01-4.1-28.33-6.89c-1.85-0.55-2.65,2.34-0.8,2.89c20.09,6.01,40.85,9.73,61.77,11.15c21,1.43,42.14,0.5,62.94-2.72
			c10.24-1.59,20.45-3.68,30.42-6.48c7.73-2.17,16.45-6.04,18.17-14.8c1.78-9.06-4.17-17.83-9.89-24.24
			c-5.97-6.69-12.61-12.74-19.75-18.16c-14.34-10.86-30.77-18.97-48.07-23.87c-8.62-2.44-17.48-4.07-26.41-4.86
			c-4.46-0.4-8.94-0.57-13.42-0.53c-4.09,0.04-8.21,0.19-12.24,0.99c-7.32,1.46-15.03,5.71-15.38,14.04
			c-0.2,4.86,2.28,9.5,4.96,13.38c2.27,3.27,4.85,6.33,7.69,9.13c11.35,11.17,26.69,18.2,42.56,19.54
			c15.57,1.31,31.21-3.4,42.82-13.99c11.05-10.08,18.13-24.53,19.27-39.44c0.56-7.35-0.42-14.88-3.12-21.75
			c-3.25-8.25-8.72-15.44-15.13-21.5c-6.74-6.36-14.54-11.82-22.7-16.2c-8.52-4.58-18.06-8.07-27.85-7.97
			c-8.1,0.08-15.81,2.72-21.49,8.62c-4.75,4.94-8.01,11.62-8.25,18.53c-0.25,7.23,3.4,13.76,9.68,17.36
			c7.53,4.31,16.79,4.09,25.16,3.39c10.67-0.89,21.27-2.61,31.66-5.18c5.21-1.29,10.36-2.78,15.45-4.49
			c4.49-1.51,9.01-3.17,13.07-5.65c3.81-2.33,7.11-5.41,9.42-9.25c2.18-3.62,3.46-7.74,4.06-11.91c1.22-8.49-0.04-17.17-2.2-25.41
			c-4.15-15.85-12.39-30.42-23.12-42.74c-10.87-12.48-24.35-22.71-39.13-30.1c-16.76-8.37-35.22-12.87-53.88-14.16
			c-20.27-1.4-40.72,0.99-60.37,6.02c-9.59,2.46-19.01,5.57-28.21,9.22C619.82,211.23,620.6,214.14,622.39,213.42L622.39,213.42z"/>
	</g>
</g>
</symbol>
</svg>
